HIERARCHY
ROOT Hips
{
	OFFSET 0.00 0.00 0.00
	CHANNELS 6 Xposition Yposition Zposition Xrotation Yrotation Zrotation
	JOINT Spine
	{
		OFFSET 0.00000 7.17041 0.00000
		CHANNELS 3 Xrotation Yrotation Zrotation
		JOINT Head
		{
			OFFSET 0.00000 14.27615 0.00000
			CHANNELS 3 Xrotation Yrotation Zrotation
			End Site
			{
				OFFSET 0.00000 4.52755 0.00000
			}
		}
		JOINT LeftShoulder
		{
			OFFSET 0.00000 10.71824 0.00000
			CHANNELS 3 Xrotation Yrotation Zrotation
			JOINT LeftArm
			{
				OFFSET 7.05887 0.00000 0.00000
				CHANNELS 3 Xrotation Yrotation Zrotation
				JOINT LeftForeArm
				{
					OFFSET 10.95552 0.00000 0.00000
					CHANNELS 3 Yrotation Zrotation Xrotation
					JOINT LeftHand
					{
						OFFSET 8.19372 0.00000 0.00000
						CHANNELS 3 Xrotation Yrotation Zrotation
						JOINT LeftHandThumb1
						{
							OFFSET 0.00000 0.00000 0.00000
							CHANNELS 3 Xrotation Zrotation Yrotation
							End Site
							{
								OFFSET 0.00000 0.00000 3.93700
							}
						}
						End Site
						{
							OFFSET 3.93700 0.00000 0.00000
						}
					}
				}
			}
		}
		JOINT RightShoulder
		{
			OFFSET 0.00000 10.71824 0.00000
			CHANNELS 3 Xrotation Yrotation Zrotation
			JOINT RightArm
			{
				OFFSET -7.05887 0.00000 0.00000
				CHANNELS 3 Xrotation Yrotation Zrotation
				JOINT RightForeArm
				{
					OFFSET -10.95552 0.00000 0.00000
					CHANNELS 3 Yrotation Zrotation Xrotation
					JOINT RightHand
					{
						OFFSET -8.19372 0.00000 0.00000
						CHANNELS 3 Xrotation Yrotation Zrotation
						JOINT RightHandThumb1
						{
							OFFSET 0.00000 0.00000 0.00000
							CHANNELS 3 Xrotation Zrotation Yrotation
							End Site
							{
								OFFSET 0.00000 0.00000 3.93700
							}
						}
						End Site
						{
							OFFSET -3.93700 0.00000 0.00000
						}
					}
				}
			}
		}
	}
	JOINT LeftUpLeg
	{
		OFFSET 4.31835 0.00000 0.00000
		CHANNELS 3 Xrotation Yrotation Zrotation
		JOINT LeftLeg
		{
			OFFSET 0.00000 -17.32364 0.00000
			CHANNELS 3 Xrotation Yrotation Zrotation
			JOINT LeftFoot
			{
				OFFSET 0.00000 -16.27037 0.00000
				CHANNELS 3 Xrotation Yrotation Zrotation
				JOINT LeftToeBase
				{
					OFFSET 0.00000 -1.27412 4.75510
					CHANNELS 3 Xrotation Yrotation Zrotation
					End Site
					{
						OFFSET 0.00000 0.00000 2.95275
					}
				}
			}
		}
	}
	JOINT RightUpLeg
	{
		OFFSET -4.31835 0.00000 0.00000
		CHANNELS 3 Xrotation Yrotation Zrotation
		JOINT RightLeg
		{
			OFFSET 0.00000 -17.32364 0.00000
			CHANNELS 3 Xrotation Yrotation Zrotation
			JOINT RightFoot
			{
				OFFSET 0.00000 -16.27037 0.00000
				CHANNELS 3 Xrotation Yrotation Zrotation
				JOINT RightToeBase
				{
					OFFSET 0.00000 -1.27412 4.75510
					CHANNELS 3 Xrotation Yrotation Zrotation
					End Site
					{
						OFFSET 0.00000 0.00000 2.95275
					}
				}
			}
		}
	}
}
MOTION
Frames: 9
Frame Time: 0.008333
 -5.6995 35.1990 -9.5631 -0.3663 -6.1216 -5.7862 -1.5244 -0.8808 9.4423 3.8191 7.6583 -8.6513 14.2981 26.7467 2.1783 -56.9006 6.1611 -21.2649 -9.1950 0.0000 19.7316 -0.4812 4.4137 6.2283 33.1476 -0.0000 26.2537 -16.7291 -3.0676 -22.1660 -16.2985 -15.3471 19.7552 20.8477 -0.0000 31.8836 -1.1986 -8.3057 -8.2411 32.8623 0.0000 -24.3270 9.4714 15.7134 4.2850 -9.8751 0.0000 0.0000 -15.0790 29.2361 7.0655 22.3390 0.0000 0.0000 7.5147 -4.9870 3.1646 -4.6755 0.0000 -0.0000 -4.4425 -25.1611 -2.4783 13.5261 -0.0000 0.0000
 -5.6998 35.1992 -9.5705 -0.3860 -6.1107 -5.7823 -1.4641 -0.8859 9.4227 3.8726 7.5928 -8.6448 14.5992 26.7555 1.8766 -56.3228 6.2390 -21.7131 -9.4804 0.0000 19.6461 -0.4724 4.2329 6.3735 33.1476 -0.0000 26.2537 -16.5767 -3.2216 -21.9859 -16.1976 -15.5409 20.2161 21.0085 -0.0000 31.6485 -1.2806 -8.3157 -8.7863 32.8623 0.0000 -24.3270 9.4667 15.7307 4.2868 -9.8542 0.0000 0.0000 -15.0751 29.2005 6.9971 22.3465 -0.0000 0.0000 7.5181 -4.9918 3.1629 -4.6645 0.0000 -0.0000 -4.4540 -25.1668 -2.5195 13.5307 0.0000 -0.0000
 -5.6992 35.2000 -9.5772 -0.4057 -6.1115 -5.7785 -1.4196 -0.8787 9.4014 3.9569 7.5297 -8.6409 14.8654 26.7077 1.5793 -55.6740 6.3551 -22.1064 -9.8681 0.0000 19.6564 -0.4836 4.2875 6.4410 33.1476 -0.0000 26.2537 -16.3504 -3.4409 -21.7469 -16.1681 -15.6451 20.6535 21.1043 -0.0000 31.5376 -1.3586 -8.2667 -9.3665 32.8623 0.0000 -24.3270 9.4754 15.7225 4.2781 -9.8505 -0.0000 -0.0000 -15.0512 29.2140 7.0512 22.3029 0.0000 -0.0000 7.5233 -4.9977 3.1574 -4.6601 0.0000 0.0000 -4.4451 -25.1525 -2.5107 13.5542 0.0000 -0.0000
 -5.7001 35.2008 -9.5844 -0.4276 -6.1110 -5.7897 -1.3676 -0.8803 9.4079 4.0443 7.4861 -8.6728 15.1612 26.6678 1.2548 -54.9911 6.4663 -22.5577 -10.2469 0.0000 19.7733 -0.4849 4.2756 6.4761 33.1476 -0.0000 26.2537 -16.2321 -3.5775 -21.5195 -15.9651 -15.7890 21.0728 21.2339 -0.0000 31.5453 -1.3770 -8.1752 -9.5947 32.8623 0.0000 -24.3270 9.4746 15.7320 4.2945 -9.8359 -0.0000 -0.0000 -15.0675 29.1996 7.0196 22.3135 -0.0000 0.0000 7.5336 -4.9954 3.1686 -4.6596 0.0000 -0.0000 -4.4325 -25.1536 -2.5172 13.5427 0.0000 0.0000
 -5.6992 35.2015 -9.5914 -0.4530 -6.1193 -5.8002 -1.3162 -0.8861 9.4186 4.1560 7.4732 -8.7061 15.4545 26.6089 0.9240 -54.3641 6.6533 -23.0088 -10.6751 0.0000 19.9405 -0.4662 4.1817 6.3673 33.1476 -0.0000 26.2537 -16.0912 -3.7731 -21.3076 -15.6056 -15.7165 21.6348 21.1673 -0.0000 31.1268 -1.4480 -8.0133 -10.2775 32.8623 0.0000 -24.3270 9.4880 15.7449 4.2994 -9.8392 -0.0000 0.0000 -15.0624 29.1955 7.0289 22.3290 0.0000 0.0000 7.5373 -5.0263 3.1774 -4.6431 -0.0000 -0.0000 -4.3995 -25.1326 -2.4724 13.4775 -0.0000 0.0000
 -5.6987 35.2018 -9.5985 -0.4807 -6.1176 -5.8164 -1.2454 -0.9247 9.4288 4.2244 7.4888 -8.7327 15.7879 26.6069 0.5952 -53.5575 6.7495 -23.5672 -11.0753 0.0000 19.8702 -0.4618 4.0178 6.5620 33.1476 -0.0000 26.2537 -15.8820 -3.9295 -21.0698 -15.3914 -15.7968 22.1952 21.2597 -0.0000 30.8073 -1.5285 -8.0636 -10.7708 32.8623 0.0000 -24.3270 9.4997 15.7339 4.3146 -9.8378 0.0000 -0.0000 -15.0672 29.2020 7.0591 22.3580 0.0000 -0.0000 7.5539 -5.0299 3.1894 -4.6403 0.0000 -0.0000 -4.3930 -25.1237 -2.4726 13.5338 -0.0000 0.0000
 -5.6993 35.2026 -9.6067 -0.5056 -6.1240 -5.8316 -1.1755 -0.9353 9.4430 4.2982 7.4534 -8.7687 16.1155 26.5227 0.2079 -52.4911 6.7819 -24.0465 -11.6144 0.0000 19.6605 -0.4767 4.1623 6.5390 33.1476 -0.0000 26.2537 -15.6941 -4.0814 -20.8188 -15.3036 -16.0357 22.7100 21.5243 -0.0000 31.0333 -1.5187 -8.0817 -10.6795 32.8623 0.0000 -24.3270 9.5091 15.7389 4.3294 -9.8397 -0.0000 0.0000 -15.0663 29.2087 7.0506 22.3602 0.0000 0.0000 7.5600 -5.0305 3.2017 -4.6319 -0.0000 -0.0000 -4.3721 -25.1128 -2.4519 13.4953 0.0000 0.0000
 -5.7004 35.2029 -9.6138 -0.5296 -6.1072 -5.8422 -1.1024 -0.9862 9.4413 4.3634 7.4644 -8.7805 16.3924 26.4927 -0.1273 -51.6397 6.9484 -24.6269 -12.1731 0.0000 19.6868 -0.4695 4.1928 6.3944 33.1476 -0.0000 26.2537 -15.5448 -4.1565 -20.6421 -14.8833 -16.2658 23.4464 21.7033 -0.0000 30.6659 -1.5836 -7.9244 -11.3389 32.8623 0.0000 -24.3270 9.5141 15.7244 4.3436 -9.8345 -0.0000 -0.0000 -15.0776 29.2045 7.0903 22.3734 -0.0000 0.0000 7.5834 -5.0445 3.2144 -4.6449 -0.0000 0.0000 -4.3551 -25.1033 -2.4515 13.4896 0.0000 -0.0000
 -5.7000 35.2044 -9.6229 -0.5743 -6.1837 -5.8607 -1.0113 -0.9400 9.4524 4.4482 7.4746 -8.7961 16.6659 26.4332 -0.4962 -50.7484 7.0899 -25.1969 -12.6715 0.0000 19.4816 -0.4406 3.9322 6.3988 33.1476 -0.0000 26.2537 -15.2763 -4.2676 -20.3824 -14.5981 -16.4866 24.0988 21.9347 -0.0000 30.3714 -1.6376 -7.9588 -11.6664 32.8623 0.0000 -24.3270 9.5611 15.7894 4.3439 -9.8605 0.0000 0.0000 -15.0529 29.2113 7.0720 22.3805 0.0000 -0.0000 7.5762 -4.9809 3.2181 -4.6085 -0.0000 -0.0000 -4.3396 -25.0965 -2.4280 13.4909 0.0000 -0.0000
